<?xml version="1.0" encoding="utf-8"?>
<!-- Generator: Adobe Illustrator 17.0.0, SVG Export Plug-In . SVG Version: 6.00 Build 0)  -->
<!DOCTYPE svg PUBLIC "-//W3C//DTD SVG 1.1//EN" "http://www.w3.org/Graphics/SVG/1.1/DTD/svg11.dtd">
<svg version="1.1" id="Capa_1" xmlns="http://www.w3.org/2000/svg" xmlns:xlink="http://www.w3.org/1999/xlink" x="0px" y="0px"
	 width="120px" height="33px" viewBox="0 0 120 33" enable-background="new 0 0 120 33" xml:space="preserve">
<g>
	<radialGradient id="SVGID_1_" cx="103.4584" cy="21.6518" r="21.0669" gradientUnits="userSpaceOnUse">
		<stop  offset="0" style="stop-color:#F39200"/>
		<stop  offset="0.6963" style="stop-color:#E94E1B"/>
	</radialGradient>
	<circle fill="url(#SVGID_1_)" cx="103.038" cy="16.5" r="16.164"/>
	<path fill="#FFFFFF" d="M4.558,12.718V8.559l-3.127,1.819v2.34H0v2.484h1.431v5.135c0,1.102,0.033,1.834,0.1,2.196
		c0.081,0.51,0.227,0.915,0.438,1.214c0.211,0.299,0.541,0.543,0.993,0.732c0.451,0.189,0.957,0.283,1.519,0.283
		c0.917,0,1.737-0.156,2.462-0.466l-0.266-2.418c-0.547,0.2-0.965,0.299-1.253,0.299c-0.207,0-0.382-0.052-0.527-0.155
		c-0.144-0.103-0.237-0.235-0.277-0.394c-0.041-0.159-0.061-0.719-0.061-1.68v-4.747h2.129v-2.484H4.558L4.558,12.718z
		 M19.497,24.496V12.718H16.38v4.968c0,1.686-0.078,2.745-0.233,3.177c-0.155,0.432-0.444,0.795-0.865,1.087
		c-0.422,0.292-0.898,0.438-1.431,0.438c-0.466,0-0.85-0.109-1.153-0.327c-0.303-0.218-0.512-0.514-0.627-0.887
		c-0.115-0.373-0.172-1.388-0.172-3.044v-5.412H8.784v7.453c0,1.109,0.14,1.978,0.421,2.606c0.281,0.629,0.736,1.116,1.364,1.464
		c0.628,0.347,1.338,0.521,2.129,0.521c0.776,0,1.514-0.181,2.213-0.544c0.699-0.362,1.262-0.857,1.691-1.486v1.763H19.497
		L19.497,24.496z M25.707,20.858c0-2.004,0.087-3.32,0.261-3.948c0.174-0.628,0.412-1.063,0.715-1.303
		c0.303-0.24,0.673-0.36,1.109-0.36c0.451,0,0.939,0.17,1.464,0.51l0.965-2.717c-0.658-0.392-1.342-0.588-2.052-0.588
		c-0.503,0-0.952,0.126-1.348,0.377c-0.396,0.252-0.841,0.773-1.336,1.564v-1.675h-2.895v11.778h3.116V20.858L25.707,20.858z
		 M34.679,11.121V8.238h-3.116v2.883H34.679L34.679,11.121z M34.679,24.496V12.718h-3.116v11.778H34.679L34.679,24.496z
		 M38.611,23.786c0.935,0.651,2.205,0.976,3.809,0.976c1.767,0,3.102-0.388,4.004-1.165c0.902-0.776,1.353-1.704,1.353-2.784
		c0-0.991-0.325-1.763-0.976-2.318c-0.658-0.547-1.817-1.009-3.477-1.386c-1.66-0.377-2.63-0.669-2.911-0.876
		c-0.207-0.155-0.311-0.344-0.311-0.566c0-0.259,0.118-0.469,0.355-0.632c0.355-0.229,0.943-0.344,1.763-0.344
		c0.651,0,1.152,0.122,1.503,0.366c0.351,0.244,0.589,0.595,0.715,1.054l2.939-0.543c-0.296-1.028-0.836-1.804-1.619-2.329
		c-0.784-0.525-1.982-0.787-3.593-0.787c-1.693,0-2.943,0.348-3.748,1.042c-0.806,0.695-1.209,1.553-1.209,2.573
		c0,1.131,0.466,2.015,1.398,2.65c0.673,0.459,2.266,0.965,4.78,1.519c0.54,0.126,0.887,0.263,1.042,0.41
		c0.148,0.155,0.222,0.351,0.222,0.588c0,0.348-0.137,0.625-0.41,0.832c-0.407,0.296-1.013,0.444-1.819,0.444
		c-0.732,0-1.301-0.157-1.708-0.471c-0.407-0.314-0.676-0.774-0.81-1.381l-3.127,0.477C37.064,22.252,37.676,23.136,38.611,23.786
		L38.611,23.786z M50.272,24.496h3.116v-5.722c0-1.131,0.083-1.941,0.25-2.429c0.166-0.488,0.442-0.861,0.826-1.12
		c0.384-0.259,0.817-0.388,1.298-0.388c0.399,0,0.715,0.082,0.948,0.244c0.233,0.163,0.405,0.41,0.516,0.743
		c0.111,0.333,0.166,1.072,0.166,2.218v6.454h3.116V18.84c0-1.109,0.085-1.92,0.255-2.434c0.17-0.514,0.447-0.904,0.832-1.17
		c0.384-0.266,0.795-0.399,1.231-0.399c0.599,0,1.042,0.222,1.331,0.665c0.214,0.34,0.322,1.094,0.322,2.263v6.732h3.116v-7.53
		c0-1.124-0.107-1.937-0.322-2.44c-0.296-0.68-0.743-1.196-1.342-1.547c-0.599-0.351-1.331-0.527-2.196-0.527
		c-0.68,0-1.32,0.155-1.919,0.466c-0.599,0.31-1.157,0.78-1.675,1.408c-0.355-0.628-0.81-1.098-1.364-1.408
		c-0.554-0.31-1.209-0.466-1.963-0.466c-1.419,0-2.643,0.625-3.671,1.874v-1.608h-2.872V24.496L50.272,24.496z M70.745,21.884
		c0.51,0.943,1.255,1.658,2.235,2.146c0.98,0.488,2.009,0.732,3.089,0.732c1.745,0,3.192-0.586,4.342-1.758
		c1.149-1.172,1.725-2.649,1.725-4.431c0-1.767-0.569-3.229-1.708-4.386c-1.139-1.157-2.599-1.736-4.381-1.736
		c-1.153,0-2.198,0.255-3.133,0.765c-0.935,0.51-1.658,1.25-2.168,2.218c-0.51,0.969-0.765,1.97-0.765,3.005
		C69.98,19.794,70.235,20.942,70.745,21.884L70.745,21.884z M74.005,15.923c0.555-0.621,1.238-0.932,2.052-0.932
		c0.813,0,1.495,0.311,2.046,0.932c0.551,0.621,0.826,1.508,0.826,2.662c0,1.183-0.276,2.085-0.826,2.706
		c-0.551,0.621-1.233,0.932-2.046,0.932c-0.813,0-1.497-0.31-2.052-0.932c-0.554-0.621-0.832-1.516-0.832-2.684
		C73.174,17.439,73.451,16.544,74.005,15.923L74.005,15.923z"/>
	<g>
		<polygon fill="#FFFFFF" points="105.669,23.692 105.669,15.137 105.669,12.868 100.432,12.868 98.013,12.868 98.013,15.137 
			100.432,15.137 100.432,23.692 98.013,23.692 98.013,26.61 108.063,26.61 108.063,23.692 		"/>
		<circle fill="#FFFFFF" cx="102.896" cy="8.678" r="2.918"/>
	</g>
	<linearGradient id="SVGID_2_" gradientUnits="userSpaceOnUse" x1="103.038" y1="-2.6353" x2="103.038" y2="17.0903">
		<stop  offset="0.3005" style="stop-color:#FFFFFF;stop-opacity:0.9"/>
		<stop  offset="1" style="stop-color:#FFFFFF;stop-opacity:0"/>
	</linearGradient>
	<ellipse opacity="0.9" fill="url(#SVGID_2_)" cx="103.038" cy="11.5" rx="11.884" ry="9.647"/>
</g>
</svg>
