<?xml version="1.0" encoding="utf-8"?>
<!-- Generator: Adobe Illustrator 17.0.0, SVG Export Plug-In . SVG Version: 6.00 Build 0)  -->
<!DOCTYPE svg PUBLIC "-//W3C//DTD SVG 1.1//EN" "http://www.w3.org/Graphics/SVG/1.1/DTD/svg11.dtd">
<svg version="1.1" id="Capa_1" xmlns="http://www.w3.org/2000/svg" xmlns:xlink="http://www.w3.org/1999/xlink" x="0px" y="0px"
	 width="160px" height="44px" viewBox="15 -1 160 44" enable-background="new 15 -1 160 44" xml:space="preserve">
<g>
	<g>
		<path fill="#1D1D1B" d="M24.121,15.852v3.389h-2.904v6.474c0,1.312,0.028,2.075,0.083,2.293c0.056,0.217,0.181,0.396,0.379,0.537
			c0.197,0.141,0.436,0.211,0.718,0.211c0.393,0,0.962-0.136,1.709-0.408l0.363,3.298c-0.988,0.424-2.107,0.636-3.359,0.636
			c-0.766,0-1.458-0.128-2.072-0.385c-0.615-0.257-1.067-0.591-1.354-1c-0.288-0.408-0.487-0.96-0.597-1.656
			c-0.091-0.494-0.136-1.493-0.136-2.996V19.24H15v-3.389h1.951V12.66l4.266-2.481v5.673H24.121z"/>
		<path fill="#1D1D1B" d="M37.337,31.917v-2.405c-0.585,0.857-1.354,1.534-2.308,2.027c-0.953,0.494-1.959,0.742-3.017,0.742
			c-1.079,0-2.048-0.238-2.905-0.712c-0.857-0.473-1.477-1.139-1.86-1.996c-0.383-0.857-0.575-2.042-0.575-3.555V15.853h4.251v7.382
			c0,2.258,0.078,3.643,0.234,4.153c0.156,0.509,0.441,0.913,0.854,1.211c0.413,0.296,0.938,0.445,1.573,0.445
			c0.727,0,1.376-0.199,1.951-0.597c0.575-0.398,0.969-0.893,1.181-1.483c0.212-0.59,0.318-2.034,0.318-4.334v-6.777h4.25v16.066
			C41.285,31.917,37.337,31.917,37.337,31.917z"/>
		<path fill="#1D1D1B" d="M49.445,31.917h-4.25V15.852h3.947v2.284c0.675-1.079,1.283-1.79,1.823-2.133
			c0.539-0.344,1.153-0.514,1.838-0.514c0.969,0,1.901,0.268,2.799,0.802l-1.315,3.705c-0.716-0.463-1.382-0.696-1.997-0.696
			c-0.595,0-1.099,0.164-1.513,0.491c-0.413,0.329-0.739,0.92-0.976,1.778c-0.237,0.857-0.355,2.653-0.355,5.386v4.962H49.445z"/>
		<path fill="#1D1D1B" d="M57.123,13.674V9.74h4.251v3.933H57.123z M57.123,31.917V15.852h4.251v16.066H57.123z"/>
		<path fill="#1D1D1B" d="M63.923,27.333l4.266-0.65c0.181,0.826,0.549,1.455,1.105,1.884c0.554,0.428,1.331,0.643,2.329,0.643
			c1.099,0,1.927-0.201,2.481-0.605c0.374-0.283,0.56-0.66,0.56-1.136c0-0.322-0.101-0.59-0.302-0.802
			c-0.212-0.201-0.686-0.387-1.422-0.559c-3.429-0.757-5.602-1.448-6.52-2.073c-1.27-0.868-1.906-2.073-1.906-3.616
			c0-1.391,0.55-2.562,1.649-3.51c1.099-0.947,2.804-1.421,5.113-1.421c2.198,0,3.832,0.357,4.901,1.074s1.806,1.775,2.208,3.177
			l-4.009,0.741c-0.171-0.625-0.497-1.105-0.975-1.436c-0.48-0.333-1.162-0.5-2.051-0.5c-1.118,0-1.921,0.156-2.405,0.469
			c-0.323,0.222-0.484,0.509-0.484,0.863c0,0.303,0.141,0.56,0.424,0.772c0.383,0.283,1.707,0.681,3.971,1.196
			c2.264,0.514,3.845,1.145,4.743,1.891c0.887,0.756,1.331,1.81,1.331,3.161c0,1.473-0.615,2.739-1.845,3.798
			c-1.231,1.059-3.052,1.588-5.462,1.588c-2.188,0-3.921-0.444-5.195-1.331C65.15,30.061,64.316,28.856,63.923,27.333z"/>
		<path fill="#1D1D1B" d="M82.024,15.852h3.918v2.193c1.402-1.704,3.071-2.556,5.007-2.556c1.029,0,1.921,0.212,2.677,0.635
			c0.757,0.424,1.376,1.064,1.86,1.921c0.706-0.857,1.467-1.497,2.284-1.921c0.817-0.424,1.689-0.635,2.617-0.635
			c1.179,0,2.178,0.24,2.995,0.718c0.817,0.48,1.427,1.183,1.83,2.111c0.292,0.686,0.439,1.795,0.439,3.328v10.272h-4.25v-9.182
			c0-1.593-0.147-2.622-0.439-3.086c-0.393-0.605-0.999-0.908-1.815-0.908c-0.595,0-1.155,0.181-1.679,0.545
			c-0.524,0.363-0.902,0.895-1.135,1.596c-0.232,0.701-0.348,1.808-0.348,3.321v7.715h-4.251v-8.805
			c0-1.563-0.076-2.572-0.227-3.026c-0.152-0.454-0.385-0.792-0.703-1.014c-0.318-0.223-0.749-0.333-1.293-0.333
			c-0.656,0-1.246,0.177-1.77,0.53c-0.524,0.353-0.9,0.863-1.127,1.527c-0.227,0.666-0.34,1.77-0.34,3.313v7.806h-4.251V15.852
			H82.024z"/>
		<path fill="#1D1D1B" d="M108.595,23.658c0-1.412,0.348-2.779,1.044-4.099c0.696-1.321,1.681-2.33,2.957-3.026
			c1.275-0.696,2.699-1.044,4.274-1.044c2.431,0,4.423,0.789,5.976,2.366c1.552,1.579,2.329,3.573,2.329,5.983
			c0,2.431-0.783,4.445-2.352,6.043c-1.568,1.598-3.543,2.398-5.923,2.398c-1.472,0-2.877-0.334-4.213-1
			c-1.337-0.665-2.353-1.641-3.048-2.926C108.943,27.069,108.595,25.503,108.595,23.658z M112.952,23.885
			c0,1.594,0.378,2.814,1.135,3.662c0.757,0.847,1.689,1.27,2.798,1.27c1.11,0,2.04-0.424,2.791-1.27
			c0.75-0.848,1.127-2.078,1.127-3.692c0-1.573-0.377-2.784-1.127-3.631c-0.751-0.848-1.681-1.27-2.791-1.27
			c-1.109,0-2.042,0.424-2.798,1.27C113.33,21.071,112.952,22.291,112.952,23.885z"/>
	</g>
	
		<radialGradient id="SVGID_1_" cx="810.8377" cy="-954.5446" r="71.4902" gradientTransform="matrix(0.3996 0 0 -0.3996 -170.3697 -353.458)" gradientUnits="userSpaceOnUse">
		<stop  offset="0" style="stop-color:#F39200"/>
		<stop  offset="0.6963" style="stop-color:#E94E1B"/>
	</radialGradient>
	<circle fill="url(#SVGID_1_)" cx="153.079" cy="21" r="21.921"/>
	<g>
		<polygon fill="#FFFFFF" points="156.647,30.753 156.647,19.153 156.647,16.074 149.544,16.074 146.264,16.074 146.264,19.153 
			149.544,19.153 149.544,30.753 146.264,30.753 146.264,34.71 159.894,34.71 159.894,30.753 		"/>
		<circle fill="#FFFFFF" cx="152.887" cy="10.392" r="3.957"/>
	</g>
	
		<linearGradient id="SVGID_2_" gradientUnits="userSpaceOnUse" x1="355.7386" y1="-95.4739" x2="355.7386" y2="-117.669" gradientTransform="matrix(1 0 0 -1 -202.66 -97.96)">
		<stop  offset="0.3005" style="stop-color:#FFFFFF;stop-opacity:0.9"/>
		<stop  offset="1" style="stop-color:#FFFFFF;stop-opacity:0"/>
	</linearGradient>
	<ellipse opacity="0.7" fill="url(#SVGID_2_)" enable-background="new    " cx="153.079" cy="13.419" rx="14.595" ry="10.854"/>
</g>
</svg>
