<?xml version="1.0" encoding="utf-8"?>
<!-- Generator: Adobe Illustrator 17.0.0, SVG Export Plug-In . SVG Version: 6.00 Build 0)  -->
<!DOCTYPE svg PUBLIC "-//W3C//DTD SVG 1.1//EN" "http://www.w3.org/Graphics/SVG/1.1/DTD/svg11.dtd">
<svg version="1.1" id="Capa_1" xmlns="http://www.w3.org/2000/svg" xmlns:xlink="http://www.w3.org/1999/xlink" x="0px" y="0px"
	 width="190px" height="42px" viewBox="0 0 190 42" enable-background="new 0 0 190 42" xml:space="preserve">
<g>
	<path fill="#FFFFFF" d="M8.96,15.882v3.166H6.247v6.049c0,1.226,0.026,1.939,0.078,2.142c0.052,0.203,0.169,0.37,0.354,0.502
		c0.184,0.132,0.407,0.197,0.671,0.197c0.367,0,0.899-0.127,1.597-0.381l0.339,3.081c-0.923,0.396-1.969,0.594-3.138,0.594
		c-0.716,0-1.362-0.12-1.936-0.36c-0.575-0.24-0.997-0.552-1.265-0.934c-0.269-0.381-0.455-0.897-0.558-1.547
		c-0.085-0.462-0.127-1.395-0.127-2.799v-6.544H0.438v-3.166h1.823V12.9l3.986-2.318v5.3H8.96z"/>
	<path fill="#FFFFFF" d="M21.307,30.892v-2.247c-0.547,0.801-1.265,1.433-2.156,1.894c-0.89,0.462-1.83,0.693-2.819,0.693
		c-1.008,0-1.913-0.222-2.714-0.665c-0.801-0.442-1.38-1.064-1.738-1.865s-0.537-1.908-0.537-3.321v-9.498h3.972v6.897
		c0,2.11,0.073,3.404,0.219,3.88c0.146,0.476,0.412,0.853,0.798,1.131c0.386,0.277,0.876,0.416,1.47,0.416
		c0.679,0,1.286-0.186,1.823-0.558s0.905-0.834,1.103-1.386c0.198-0.551,0.297-1.9,0.297-4.049v-6.332h3.971v15.01H21.307z"/>
	<path fill="#FFFFFF" d="M32.62,30.892h-3.971v-15.01h3.688v2.134c0.631-1.008,1.199-1.672,1.703-1.993s1.077-0.48,1.717-0.48
		c0.905,0,1.776,0.25,2.615,0.749l-1.229,3.462c-0.669-0.433-1.291-0.65-1.866-0.65c-0.556,0-1.027,0.153-1.414,0.459
		c-0.386,0.307-0.69,0.86-0.912,1.661c-0.221,0.801-0.332,2.479-0.332,5.032V30.892z"/>
	<path fill="#FFFFFF" d="M39.793,13.847v-3.675h3.972v3.675H39.793z M39.793,30.892v-15.01h3.972v15.01H39.793z"/>
	<path fill="#FFFFFF" d="M46.146,26.609l3.986-0.607c0.169,0.772,0.513,1.359,1.032,1.76c0.518,0.4,1.244,0.601,2.176,0.601
		c1.027,0,1.8-0.188,2.318-0.565c0.349-0.264,0.523-0.617,0.523-1.061c0-0.301-0.094-0.551-0.282-0.749
		c-0.198-0.188-0.641-0.362-1.329-0.522c-3.204-0.707-5.234-1.353-6.092-1.937c-1.187-0.811-1.781-1.937-1.781-3.378
		c0-1.3,0.514-2.394,1.541-3.279c1.027-0.885,2.62-1.328,4.777-1.328c2.054,0,3.58,0.334,4.579,1.003
		c0.999,0.669,1.687,1.658,2.063,2.968l-3.746,0.692c-0.16-0.584-0.464-1.032-0.911-1.342c-0.448-0.311-1.086-0.467-1.916-0.467
		c-1.045,0-1.795,0.146-2.247,0.438c-0.302,0.207-0.452,0.476-0.452,0.806c0,0.283,0.132,0.523,0.396,0.721
		c0.358,0.264,1.595,0.636,3.71,1.117c2.115,0.48,3.592,1.07,4.431,1.767c0.829,0.706,1.244,1.691,1.244,2.953
		c0,1.376-0.575,2.559-1.724,3.548c-1.15,0.989-2.851,1.484-5.103,1.484c-2.044,0-3.663-0.415-4.854-1.244
		C47.293,29.158,46.514,28.032,46.146,26.609z"/>
	<path fill="#FFFFFF" d="M63.058,15.882h3.661v2.049c1.31-1.592,2.869-2.388,4.678-2.388c0.961,0,1.795,0.198,2.501,0.593
		c0.707,0.396,1.286,0.994,1.738,1.795c0.66-0.801,1.371-1.399,2.134-1.795c0.763-0.396,1.578-0.593,2.445-0.593
		c1.102,0,2.035,0.224,2.798,0.671c0.763,0.448,1.333,1.105,1.71,1.972c0.273,0.641,0.41,1.677,0.41,3.109v9.597h-3.971v-8.579
		c0-1.488-0.137-2.45-0.41-2.883c-0.367-0.565-0.933-0.848-1.696-0.848c-0.556,0-1.079,0.169-1.569,0.509
		c-0.49,0.339-0.843,0.836-1.06,1.491c-0.217,0.655-0.325,1.689-0.325,3.103v7.208h-3.972v-8.226c0-1.46-0.071-2.403-0.212-2.827
		c-0.142-0.424-0.36-0.74-0.657-0.947c-0.297-0.208-0.7-0.311-1.208-0.311c-0.613,0-1.164,0.165-1.654,0.495
		c-0.49,0.33-0.841,0.806-1.053,1.427c-0.212,0.622-0.318,1.654-0.318,3.095v7.293h-3.972V15.882z"/>
	<path fill="#FFFFFF" d="M87.883,23.175c0-1.319,0.325-2.596,0.975-3.83c0.65-1.234,1.571-2.177,2.763-2.827
		c1.191-0.65,2.522-0.975,3.993-0.975c2.271,0,4.132,0.737,5.583,2.211c1.45,1.475,2.176,3.338,2.176,5.59
		c0,2.271-0.732,4.153-2.197,5.646s-3.31,2.24-5.534,2.24c-1.375,0-2.688-0.312-3.936-0.934c-1.249-0.621-2.198-1.533-2.848-2.734
		C88.208,26.362,87.883,24.899,87.883,23.175z M91.954,23.387c0,1.489,0.353,2.629,1.06,3.421c0.707,0.791,1.578,1.187,2.614,1.187
		c1.037,0,1.906-0.396,2.608-1.187c0.701-0.792,1.053-1.941,1.053-3.449c0-1.47-0.352-2.601-1.053-3.392
		c-0.702-0.792-1.571-1.187-2.608-1.187c-1.036,0-1.908,0.396-2.614,1.187C92.307,20.758,91.954,21.898,91.954,23.387z"/>
	<path fill="#FFFFFF" d="M153.259,30.892v-2.897h2.897v2.897H153.259z"/>
	<path fill="#FFFFFF" d="M170.565,26.059l2.629,0.324c-0.414,1.536-1.183,2.729-2.304,3.576s-2.554,1.272-4.296,1.272
		c-2.196,0-3.937-0.677-5.223-2.028c-1.286-1.353-1.93-3.248-1.93-5.688c0-2.526,0.65-4.486,1.951-5.88
		c1.3-1.394,2.986-2.091,5.06-2.091c2.007,0,3.646,0.683,4.918,2.049c1.272,1.366,1.908,3.288,1.908,5.766
		c0,0.151-0.005,0.377-0.014,0.679h-11.194c0.095,1.649,0.561,2.911,1.399,3.788c0.839,0.876,1.885,1.314,3.138,1.314
		c0.933,0,1.729-0.245,2.389-0.735C169.656,27.915,170.18,27.133,170.565,26.059z M162.213,21.945h8.381
		c-0.112-1.263-0.434-2.209-0.961-2.841c-0.811-0.98-1.86-1.47-3.151-1.47c-1.169,0-2.151,0.391-2.947,1.173
		S162.298,20.636,162.213,21.945z"/>
	<path fill="#FFFFFF" d="M175.082,26.411l2.516-0.396c0.142,1.009,0.534,1.781,1.18,2.318s1.548,0.806,2.707,0.806
		c1.168,0,2.035-0.238,2.601-0.714s0.848-1.034,0.848-1.675c0-0.575-0.25-1.027-0.749-1.357c-0.349-0.226-1.216-0.513-2.601-0.861
		c-1.865-0.472-3.158-0.879-3.88-1.223c-0.721-0.344-1.267-0.82-1.639-1.428c-0.373-0.607-0.559-1.279-0.559-2.014
		c0-0.669,0.153-1.289,0.459-1.859c0.307-0.57,0.724-1.043,1.251-1.42c0.396-0.292,0.936-0.539,1.618-0.742
		c0.684-0.203,1.416-0.304,2.198-0.304c1.178,0,2.212,0.169,3.102,0.509c0.891,0.339,1.548,0.798,1.972,1.378
		c0.425,0.579,0.717,1.354,0.877,2.325l-2.487,0.339c-0.113-0.772-0.441-1.375-0.982-1.809c-0.542-0.433-1.308-0.65-2.297-0.65
		c-1.169,0-2.002,0.193-2.502,0.58c-0.499,0.387-0.749,0.839-0.749,1.357c0,0.33,0.104,0.626,0.312,0.89
		c0.207,0.273,0.532,0.5,0.975,0.679c0.255,0.094,1.004,0.311,2.247,0.65c1.8,0.481,3.056,0.875,3.767,1.18
		c0.712,0.307,1.27,0.752,1.675,1.336s0.608,1.31,0.608,2.177c0,0.848-0.248,1.646-0.742,2.396
		c-0.495,0.749-1.209,1.328-2.142,1.738s-1.988,0.615-3.166,0.615c-1.95,0-3.437-0.405-4.459-1.216S175.364,28.004,175.082,26.411z"
		/>
</g>
<radialGradient id="SVGID_1_" cx="245.1936" cy="254.4769" r="66.7928" gradientTransform="matrix(0.3996 0 0 0.3996 31.9901 -74.4774)" gradientUnits="userSpaceOnUse">
	<stop  offset="0" style="stop-color:#F39200"/>
	<stop  offset="0.6963" style="stop-color:#E94E1B"/>
</radialGradient>
<circle fill="url(#SVGID_1_)" cx="129.444" cy="20.692" r="20.481"/>
<g>
	<polygon fill="#FFFFFF" points="132.778,29.804 132.778,18.966 132.778,16.09 126.142,16.09 123.077,16.09 123.077,18.966 
		126.142,18.966 126.142,29.804 123.077,29.804 123.077,33.501 135.812,33.501 135.812,29.804 	"/>
	<circle fill="#FFFFFF" cx="129.265" cy="10.781" r="3.697"/>
</g>
<linearGradient id="SVGID_2_" gradientUnits="userSpaceOnUse" x1="129.4445" y1="-1.2509" x2="129.4445" y2="19.4859">
	<stop  offset="0.3005" style="stop-color:#FFFFFF;stop-opacity:0.9"/>
	<stop  offset="1" style="stop-color:#FFFFFF;stop-opacity:0"/>
</linearGradient>
<ellipse opacity="0.7" fill="url(#SVGID_2_)" cx="129.444" cy="13.609" rx="13.636" ry="10.141"/>
</svg>
